<?xml version="1.0" standalone="no"?><svg xmlns:xlink="http://www.w3.org/1999/xlink" xmlns="http://www.w3.org/2000/svg" viewBox="0 0 1000 555.5597662556181" preserveAspectRatio="xMaxYMax slice"><g transform="scale(0.7579260112627805)"><rect x="0" y="0" width="1319.3999999999999" height="733" fill="#222831"/><circle cx="36.65" cy="36.65" r="29.32" fill="#32F3FF"/><circle cx="109.94999999999999" cy="36.65" r="29.32" fill="#32F3FF"/><circle cx="183.25" cy="36.65" r="29.32" fill="#32F3FF"/><circle cx="256.55" cy="36.65" r="29.32" fill="#32F3FF"/><circle cx="329.84999999999997" cy="36.65" r="29.32" fill="#32F3FF"/><circle cx="403.15" cy="36.65" r="29.32" fill="#32F3FF"/><circle cx="476.45" cy="36.65" r="29.32" fill="#32F3FF"/><circle cx="549.75" cy="36.65" r="29.32" fill="#32F3FF"/><circle cx="623.0500000000001" cy="36.65" r="29.32" fill="#32F3FF"/><circle cx="696.35" cy="36.65" r="29.32" fill="#32F3FF"/><circle cx="769.6500000000001" cy="36.65" r="29.32" fill="#32F3FF"/><circle cx="842.95" cy="36.65" r="29.32" fill="#32F3FF"/><circle cx="916.25" cy="36.65" r="29.32" fill="#32F3FF"/><circle cx="989.5500000000001" cy="36.65" r="29.32" fill="#32F3FF"/><circle cx="1062.85" cy="36.65" r="29.32" fill="#32F3FF"/><circle cx="1136.1499999999999" cy="36.65" r="29.32" fill="#32F3FF"/><circle cx="1209.45" cy="36.65" r="29.32" fill="#32F3FF"/><circle cx="1282.75" cy="36.65" r="29.32" fill="#32F3FF"/><circle cx="36.65" cy="109.94999999999999" r="29.32" fill="#32F3FF"/><circle cx="109.94999999999999" cy="109.94999999999999" r="29.32" fill="#32F3FF"/><circle cx="183.25" cy="109.94999999999999" r="29.32" fill="#32F3FF"/><circle cx="256.55" cy="109.94999999999999" r="29.32" fill="#32F3FF"/><circle cx="329.84999999999997" cy="109.94999999999999" r="29.32" fill="#32F3FF"/><circle cx="403.15" cy="109.94999999999999" r="29.32" fill="#32F3FF"/><circle cx="476.45" cy="109.94999999999999" r="29.32" fill="#32F3FF"/><circle cx="549.75" cy="109.94999999999999" r="29.32" fill="#32F3FF"/><circle cx="623.0500000000001" cy="109.94999999999999" r="29.32" fill="#32F3FF"/><circle cx="696.35" cy="109.94999999999999" r="29.32" fill="#32F3FF"/><circle cx="769.6500000000001" cy="109.94999999999999" r="29.32" fill="#32F3FF"/><circle cx="842.95" cy="109.94999999999999" r="29.32" fill="#32F3FF"/><circle cx="916.25" cy="109.94999999999999" r="29.32" fill="#32F3FF"/><circle cx="989.5500000000001" cy="109.94999999999999" r="29.32" fill="#32F3FF"/><circle cx="1062.85" cy="109.94999999999999" r="29.32" fill="#32F3FF"/><circle cx="1136.1499999999999" cy="109.94999999999999" r="29.32" fill="#32F3FF"/><circle cx="1209.45" cy="109.94999999999999" r="29.32" fill="#32F3FF"/><circle cx="1282.75" cy="109.94999999999999" r="29.32" fill="#32F3FF"/><circle cx="36.65" cy="183.25" r="29.32" fill="#32F3FF"/><circle cx="109.94999999999999" cy="183.25" r="29.32" fill="#32F3FF"/><circle cx="183.25" cy="183.25" r="29.32" fill="#32F3FF"/><circle cx="256.55" cy="183.25" r="29.32" fill="#32F3FF"/><circle cx="329.84999999999997" cy="183.25" r="29.32" fill="#32F3FF"/><circle cx="403.15" cy="183.25" r="29.32" fill="#32F3FF"/><circle cx="476.45" cy="183.25" r="29.32" fill="#32F3FF"/><circle cx="549.75" cy="183.25" r="29.32" fill="#32F3FF"/><circle cx="623.0500000000001" cy="183.25" r="29.32" fill="#32F3FF"/><circle cx="696.35" cy="183.25" r="29.32" fill="#32F3FF"/><circle cx="769.6500000000001" cy="183.25" r="29.32" fill="#32F3FF"/><circle cx="842.95" cy="183.25" r="29.32" fill="#32F3FF"/><circle cx="916.25" cy="183.25" r="29.32" fill="#32F3FF"/><circle cx="989.5500000000001" cy="183.25" r="29.32" fill="#32F3FF"/><circle cx="1062.85" cy="183.25" r="29.32" fill="#32F3FF"/><circle cx="1136.1499999999999" cy="183.25" r="29.32" fill="#32F3FF"/><circle cx="1209.45" cy="183.25" r="29.32" fill="#32F3FF"/><circle cx="1282.75" cy="183.25" r="29.32" fill="#32F3FF"/><circle cx="36.65" cy="256.55" r="29.32" fill="#32F3FF"/><circle cx="109.94999999999999" cy="256.55" r="29.32" fill="#32F3FF"/><circle cx="183.25" cy="256.55" r="29.32" fill="#32F3FF"/><circle cx="256.55" cy="256.55" r="29.32" fill="#32F3FF"/><circle cx="329.84999999999997" cy="256.55" r="29.32" fill="#32F3FF"/><circle cx="403.15" cy="256.55" r="29.32" fill="#32F3FF"/><circle cx="476.45" cy="256.55" r="29.32" fill="#32F3FF"/><circle cx="549.75" cy="256.55" r="29.32" fill="#32F3FF"/><circle cx="623.0500000000001" cy="256.55" r="29.32" fill="#32F3FF"/><circle cx="696.35" cy="256.55" r="29.32" fill="#32F3FF"/><circle cx="769.6500000000001" cy="256.55" r="29.32" fill="#32F3FF"/><circle cx="842.95" cy="256.55" r="29.32" fill="#32F3FF"/><circle cx="916.25" cy="256.55" r="29.32" fill="#32F3FF"/><circle cx="989.5500000000001" cy="256.55" r="29.32" fill="#32F3FF"/><circle cx="1062.85" cy="256.55" r="29.32" fill="#32F3FF"/><circle cx="1136.1499999999999" cy="256.55" r="29.32" fill="#32F3FF"/><circle cx="1209.45" cy="256.55" r="29.32" fill="#32F3FF"/><circle cx="1282.75" cy="256.55" r="29.32" fill="#32F3FF"/><circle cx="36.65" cy="329.84999999999997" r="29.32" fill="#32F3FF"/><circle cx="109.94999999999999" cy="329.84999999999997" r="29.32" fill="#32F3FF"/><circle cx="183.25" cy="329.84999999999997" r="29.32" fill="#32F3FF"/><circle cx="256.55" cy="329.84999999999997" r="29.32" fill="#32F3FF"/><circle cx="329.84999999999997" cy="329.84999999999997" r="29.32" fill="#32F3FF"/><circle cx="403.15" cy="329.84999999999997" r="29.32" fill="#32F3FF"/><circle cx="476.45" cy="329.84999999999997" r="29.32" fill="#32F3FF"/><circle cx="549.75" cy="329.84999999999997" r="29.32" fill="#32F3FF"/><circle cx="623.0500000000001" cy="329.84999999999997" r="29.32" fill="#32F3FF"/><circle cx="696.35" cy="329.84999999999997" r="29.32" fill="#32F3FF"/><circle cx="769.6500000000001" cy="329.84999999999997" r="29.32" fill="#32F3FF"/><circle cx="842.95" cy="329.84999999999997" r="29.32" fill="#32F3FF"/><circle cx="916.25" cy="329.84999999999997" r="29.32" fill="#32F3FF"/><circle cx="989.5500000000001" cy="329.84999999999997" r="29.32" fill="#32F3FF"/><circle cx="1062.85" cy="329.84999999999997" r="29.32" fill="#32F3FF"/><circle cx="1136.1499999999999" cy="329.84999999999997" r="29.32" fill="#32F3FF"/><circle cx="1209.45" cy="329.84999999999997" r="29.32" fill="#32F3FF"/><circle cx="1282.75" cy="329.84999999999997" r="29.32" fill="#32F3FF"/><circle cx="36.65" cy="403.15" r="29.32" fill="#32F3FF"/><circle cx="109.94999999999999" cy="403.15" r="29.32" fill="#32F3FF"/><circle cx="183.25" cy="403.15" r="29.32" fill="#32F3FF"/><circle cx="256.55" cy="403.15" r="29.32" fill="#32F3FF"/><circle cx="329.84999999999997" cy="403.15" r="29.32" fill="#32F3FF"/><circle cx="403.15" cy="403.15" r="29.32" fill="#32F3FF"/><circle cx="476.45" cy="403.15" r="29.32" fill="#32F3FF"/><circle cx="549.75" cy="403.15" r="29.32" fill="#32F3FF"/><circle cx="623.0500000000001" cy="403.15" r="29.32" fill="#32F3FF"/><circle cx="696.35" cy="403.15" r="29.32" fill="#32F3FF"/><circle cx="769.6500000000001" cy="403.15" r="29.32" fill="#32F3FF"/><circle cx="842.95" cy="403.15" r="29.32" fill="#32F3FF"/><circle cx="916.25" cy="403.15" r="29.32" fill="#32F3FF"/><circle cx="989.5500000000001" cy="403.15" r="29.32" fill="#32F3FF"/><circle cx="1062.85" cy="403.15" r="29.32" fill="#32F3FF"/><circle cx="1136.1499999999999" cy="403.15" r="29.32" fill="#32F3FF"/><circle cx="1209.45" cy="403.15" r="29.32" fill="#32F3FF"/><circle cx="1282.75" cy="403.15" r="29.32" fill="#32F3FF"/><circle cx="36.65" cy="476.45" r="29.32" fill="#32F3FF"/><circle cx="109.94999999999999" cy="476.45" r="29.32" fill="#32F3FF"/><circle cx="183.25" cy="476.45" r="29.32" fill="#32F3FF"/><circle cx="256.55" cy="476.45" r="29.32" fill="#32F3FF"/><circle cx="329.84999999999997" cy="476.45" r="29.32" fill="#32F3FF"/><circle cx="403.15" cy="476.45" r="29.32" fill="#32F3FF"/><circle cx="476.45" cy="476.45" r="29.32" fill="#32F3FF"/><circle cx="549.75" cy="476.45" r="29.32" fill="#32F3FF"/><circle cx="623.0500000000001" cy="476.45" r="29.32" fill="#32F3FF"/><circle cx="696.35" cy="476.45" r="29.32" fill="#32F3FF"/><circle cx="769.6500000000001" cy="476.45" r="29.32" fill="#32F3FF"/><circle cx="842.95" cy="476.45" r="29.32" fill="#32F3FF"/><circle cx="916.25" cy="476.45" r="29.32" fill="#32F3FF"/><circle cx="989.5500000000001" cy="476.45" r="29.32" fill="#32F3FF"/><circle cx="1062.85" cy="476.45" r="29.32" fill="#32F3FF"/><circle cx="1136.1499999999999" cy="476.45" r="29.32" fill="#32F3FF"/><circle cx="1209.45" cy="476.45" r="29.32" fill="#32F3FF"/><circle cx="1282.75" cy="476.45" r="29.32" fill="#32F3FF"/><circle cx="36.65" cy="549.75" r="29.32" fill="#32F3FF"/><circle cx="109.94999999999999" cy="549.75" r="29.32" fill="#32F3FF"/><circle cx="183.25" cy="549.75" r="29.32" fill="#32F3FF"/><circle cx="256.55" cy="549.75" r="29.32" fill="#32F3FF"/><circle cx="329.84999999999997" cy="549.75" r="29.32" fill="#32F3FF"/><circle cx="403.15" cy="549.75" r="29.32" fill="#32F3FF"/><circle cx="476.45" cy="549.75" r="29.32" fill="#32F3FF"/><circle cx="549.75" cy="549.75" r="29.32" fill="#32F3FF"/><circle cx="623.0500000000001" cy="549.75" r="29.32" fill="#32F3FF"/><circle cx="696.35" cy="549.75" r="29.32" fill="#32F3FF"/><circle cx="769.6500000000001" cy="549.75" r="29.32" fill="#32F3FF"/><circle cx="842.95" cy="549.75" r="29.32" fill="#32F3FF"/><circle cx="916.25" cy="549.75" r="29.32" fill="#32F3FF"/><circle cx="989.5500000000001" cy="549.75" r="29.32" fill="#32F3FF"/><circle cx="1062.85" cy="549.75" r="29.32" fill="#32F3FF"/><circle cx="1136.1499999999999" cy="549.75" r="29.32" fill="#32F3FF"/><circle cx="1209.45" cy="549.75" r="29.32" fill="#32F3FF"/><circle cx="1282.75" cy="549.75" r="29.32" fill="#32F3FF"/><circle cx="36.65" cy="623.0500000000001" r="29.32" fill="#32F3FF"/><circle cx="109.94999999999999" cy="623.0500000000001" r="29.32" fill="#32F3FF"/><circle cx="183.25" cy="623.0500000000001" r="29.32" fill="#32F3FF"/><circle cx="256.55" cy="623.0500000000001" r="29.32" fill="#32F3FF"/><circle cx="329.84999999999997" cy="623.0500000000001" r="29.32" fill="#32F3FF"/><circle cx="403.15" cy="623.0500000000001" r="29.32" fill="#32F3FF"/><circle cx="476.45" cy="623.0500000000001" r="29.32" fill="#32F3FF"/><circle cx="549.75" cy="623.0500000000001" r="29.32" fill="#32F3FF"/><circle cx="623.0500000000001" cy="623.0500000000001" r="29.32" fill="#32F3FF"/><circle cx="696.35" cy="623.0500000000001" r="29.32" fill="#32F3FF"/><circle cx="769.6500000000001" cy="623.0500000000001" r="29.32" fill="#32F3FF"/><circle cx="842.95" cy="623.0500000000001" r="29.32" fill="#32F3FF"/><circle cx="916.25" cy="623.0500000000001" r="29.32" fill="#32F3FF"/><circle cx="989.5500000000001" cy="623.0500000000001" r="29.32" fill="#32F3FF"/><circle cx="1062.85" cy="623.0500000000001" r="29.32" fill="#32F3FF"/><circle cx="1136.1499999999999" cy="623.0500000000001" r="29.32" fill="#32F3FF"/><circle cx="1209.45" cy="623.0500000000001" r="29.32" fill="#32F3FF"/><circle cx="1282.75" cy="623.0500000000001" r="29.32" fill="#32F3FF"/><circle cx="36.65" cy="696.35" r="29.32" fill="#32F3FF"/><circle cx="109.94999999999999" cy="696.35" r="29.32" fill="#32F3FF"/><circle cx="183.25" cy="696.35" r="29.32" fill="#32F3FF"/><circle cx="256.55" cy="696.35" r="29.32" fill="#32F3FF"/><circle cx="329.84999999999997" cy="696.35" r="29.32" fill="#32F3FF"/><circle cx="403.15" cy="696.35" r="29.32" fill="#32F3FF"/><circle cx="476.45" cy="696.35" r="29.32" fill="#32F3FF"/><circle cx="549.75" cy="696.35" r="29.32" fill="#32F3FF"/><circle cx="623.0500000000001" cy="696.35" r="29.32" fill="#32F3FF"/><circle cx="696.35" cy="696.35" r="29.32" fill="#32F3FF"/><circle cx="769.6500000000001" cy="696.35" r="29.32" fill="#32F3FF"/><circle cx="842.95" cy="696.35" r="29.32" fill="#32F3FF"/><circle cx="916.25" cy="696.35" r="29.32" fill="#32F3FF"/><circle cx="989.5500000000001" cy="696.35" r="29.32" fill="#32F3FF"/><circle cx="1062.85" cy="696.35" r="29.32" fill="#32F3FF"/><circle cx="1136.1499999999999" cy="696.35" r="29.32" fill="#32F3FF"/><circle cx="1209.45" cy="696.35" r="29.32" fill="#32F3FF"/><circle cx="1282.75" cy="696.35" r="29.32" fill="#32F3FF"/></g></svg>